<?xml version="1.0" encoding="UTF-8"?>
<svg id="Layer_1" xmlns="http://www.w3.org/2000/svg" viewBox="0 0 512 512">
  <defs>
    <style>
      .cls-1 {
        opacity: .07;
      }

      .cls-2 {
        fill: blue;
      }

      .cls-3 {
        fill: red;
      }

      .cls-4 {
        opacity: .18;
      }

      .cls-5 {
        opacity: .29;
      }

      .cls-5, .cls-6, .cls-7 {
        fill: #1a1a1a;
      }

      .cls-7 {
        opacity: .12;
      }

      .cls-8 {
        opacity: .5;
      }
    </style>
  </defs>
  <g class="cls-8">
    <rect class="cls-6" x="87.53" y="132.77" width="286.93" height="115.93" transform="translate(461.99 381.46) rotate(-180)"/>
    <rect class="cls-6" x="374.46" y="155.71" width="27.58" height="70.03" transform="translate(776.5 381.46) rotate(-180)"/>
    <rect class="cls-6" x="157.76" y="389.63" width="39.92" height="88.99" transform="translate(355.45 868.25) rotate(-180)"/>
    <rect class="cls-6" x="87.53" y="132.77" width="286.93" height="115.93"/>
    <rect class="cls-5" x="93.8" y="139.53" width="273.75" height="23.1"/>
    <rect class="cls-7" x="93.8" y="215.23" width="274.4" height="26.51"/>
    <polygon class="cls-6" points="117.57 97.26 136.81 97.26 136.81 133.58 100.49 133.58 100.49 113.38 117.57 97.26"/>
    <polygon class="cls-6" points="348.97 74.66 368.45 74.66 368.45 133.58 329.25 133.58 348.97 74.66"/>
    <rect class="cls-6" x="265.75" y="108.89" width="43.29" height="24.69" transform="translate(574.79 242.47) rotate(-180)"/>
    <rect class="cls-6" x="374.46" y="155.71" width="27.58" height="70.04"/>
    <rect class="cls-6" x="402.04" y="181.29" width="35.52" height="18.87"/>
    <path class="cls-6" d="M107.37,248.69s2.44,7.66,18.11,28.26c2.75,3.62,5.92,7.64,9.55,12.09,14.53,17.8,16.58,50.29,15.89,73.54-.47,15.62-2.18,27.06-2.18,27.06h62.77s-1.89-27.06-1.89-27.06l-5.99-85.62-1.98-28.26h-94.28Z"/>
    <rect class="cls-6" x="157.76" y="389.63" width="39.92" height="88.99"/>
    <path class="cls-6" d="M299.47,248.69v35.72s-52.96,35.72-52.96,35.72h-40.54s-5.17-71.43-5.17-71.43h98.68ZM217.86,307.43h27.27s40.63-26.39,40.63-26.39l.51-19.33-72.27.26,3.85,45.46Z"/>
    <rect class="cls-5" x="381.03" y="162.37" width="14.44" height="16.03"/>
    <rect class="cls-7" x="381.03" y="203.89" width="14.44" height="15.12"/>
    <path class="cls-5" d="M118.83,255.3s.4,2.6,15.07,21.87l63.43-.31-1.86-21.57h-76.64Z"/>
    <path class="cls-7" d="M156.5,382.57l47.53.05-1.73-24.66-44.23,2.58c-.43,14.24-1.58,22.04-1.58,22.04Z"/>
    <rect class="cls-7" x="164.6" y="454.82" width="26.25" height="17.52"/>
    <polygon class="cls-6" points="63.14 148.88 63.14 194.1 67.98 209.1 74.79 230.17 87.91 230.17 87.91 148.88 63.14 148.88"/>
    <rect class="cls-5" x="69.08" y="154.48" width="15.03" height="10.26"/>
    <polygon class="cls-7" points="72.29 210.16 77.5 226.39 83.85 226.48 83.85 210.16 72.29 210.16"/>
  </g>
  <g class="cls-1">
    <path class="cls-2" d="M188.24,385.28l15.2-2.03-5.9-28.38-9.26-44.53,43.84-5.84,53.18-45.6-5.04-37.83,82.47-10.99-3.24-24.32,30.34-4.04-3.61-27.1,39.06-5.21-2.66-19.98-39.06,5.21-3.61-27.1-30.34,4.04-3.24-24.32-6.6.88-8.21-61.55-21.43,2.86-13.19,64.4-22.51,3-3.37-25.29-47.61,6.35,3.37,25.29-141.79,18.9-5.01-37.61-21.15,2.82-16.5,19.58,2.74,20.53-14.25,1.9,2.28,17.08-26.83,3.58,6.39,47.91,7.44,15.17,10.46,21.34,14.03-1.87,2.62,19.62,21.82-2.91s3.75,7.75,23.91,27.27c3.54,3.44,7.58,7.23,12.2,11.41,18.49,16.72,25.33,50.84,27.85,75.57,1.69,16.61,1.43,28.98,1.43,28.98l9.91-1.32,12.57,94.27,43.91-5.85-12.57-94.27ZM269.75,257.34l-40.96,33.9-29.98,4-10.66-47.59,79.44-10.87,2.16,20.56Z"/>
  </g>
  <g class="cls-4">
    <path class="cls-3" d="M211.77,388.89l15.19,2.09,1.86-28.93,2.91-45.39,43.81,6.02,63.39-29.82,5.19-37.81,82.42,11.32,3.34-24.3,30.32,4.17,3.72-27.08,39.04,5.36,2.74-19.97-39.04-5.36,3.72-27.08-30.32-4.17,3.34-24.3-6.6-.91,8.45-61.51-21.42-2.94-29.83,58.58-22.5-3.09,3.47-25.28-47.58-6.54-3.47,25.28-141.71-19.47,5.16-37.59-21.14-2.9-21.11,14.49-2.82,20.52-14.25-1.96-2.35,17.07-26.82-3.68-6.58,47.88,3.14,16.6,4.41,23.35,14.02,1.93-2.69,19.61,21.8,3s1.56,8.47,15.8,32.65c2.5,4.25,5.38,8.99,8.73,14.24,13.38,21.03,10.9,55.75,6.76,80.25-2.78,16.46-6.32,28.32-6.32,28.32l9.91,1.36-12.95,94.22,43.88,6.03,12.95-94.22ZM324.36,287.22l-48.5,21.8-29.97-4.12,2.38-48.71,79.47,10.64-3.38,20.4Z"/>
  </g>
</svg>