<?xml version="1.0" encoding="UTF-8"?>
<svg xmlns="http://www.w3.org/2000/svg" viewBox="0 0 512 512">
  <defs>
    <style>
      .cls-1 {
        fill: #26282b;
      }

      .cls-2 {
        fill: #2055a6;
        stroke: #000;
        stroke-miterlimit: 10;
        stroke-width: 7.1px;
      }

      .cls-3 {
        fill: #1c1d1f;
      }

      .cls-4 {
        fill: #00ad52;
      }

      .cls-5 {
        fill: #f2f2f2;
        opacity: .07;
      }

      .cls-6 {
        isolation: isolate;
      }

      .cls-7 {
        opacity: .26;
      }

      .cls-8 {
        fill: #0d4d63;
        mix-blend-mode: multiply;
        opacity: .28;
      }
    </style>
  </defs>
  <g class="cls-6">
    <g id="Layer_1">
      <g>
        <path class="cls-2" d="M243.77,45.29h-27.88l-37.7,37.7L8.11,253.07l213.63,213.63h68.51l213.63-213.63L300.54,49.72l-4.43-4.43h-19.73"/>
        <rect x="93.09" y="135.53" width="235.72" height="235.72" transform="translate(-117.38 223.38) rotate(-45)"/>
        <path class="cls-3" d="M367.71,253.38l-4.02,4.02-2.91,2.91-7.65,7.65-4.74,4.74-10.57,10.57-4.74,4.74-7.66,7.66-2.91,2.91-7.65,7.65-4.74,4.74-10.57,10.57-4.74,4.74-2.92,2.92-4.73,4.74-2.91,2.91-4.74,4.74-2.91,2.91-15.3,15.3-4.74,4.74-2.92,2.92-4.74,4.74-10.56,10.56-4.74,4.74-7.66,7.66-2.91,2.91-12.51,12.51-7.78-7.78-4.74-4.74-10.57-10.57-4.74-4.74-2.91-2.91-4.74-4.74-10.57-10.57-4.74-4.74-2.91-2.91-4.74-4.74-2.92-2.92-4.74-4.74-7.65-7.65-2.91-2.91-7.66-7.66-4.74-4.74-10.57-10.57-4.74-4.74-2.91-2.91-4.74-4.74-10.57-10.57-4.74-4.74-10.57-10.57-4.74-4.74-7.65-7.65-2.91-2.91-4.02-4.02.08-.08c1.5,1.39,3.11,2.76,4.83,4.1,1.25.99,2.56,1.96,3.92,2.91,2.32,1.62,4.81,3.2,7.43,4.74,1.69.99,3.45,1.97,5.26,2.91,3.13,1.64,6.44,3.22,9.91,4.74,2.29,1,4.65,1.98,7.09,2.92,4.29,1.67,8.79,3.25,13.5,4.74,3.23,1.01,6.56,1.99,9.98,2.91,6.5,1.75,13.32,3.35,20.41,4.74,5.57,1.1,11.31,2.07,17.2,2.92,17.98,2.6,37.35,4.01,57.52,4.01s39.55-1.41,57.52-4.01c5.89-.85,11.63-1.83,17.2-2.92,7.09-1.39,13.9-2.98,20.4-4.74,3.42-.92,6.74-1.9,9.98-2.91,4.7-1.48,9.21-3.06,13.5-4.74,2.44-.94,4.81-1.92,7.1-2.92,3.48-1.51,6.78-3.09,9.91-4.74,1.82-.95,3.57-1.92,5.26-2.91,2.63-1.53,5.1-3.11,7.42-4.74,1.37-.95,2.68-1.93,3.93-2.91,1.71-1.34,3.32-2.71,4.82-4.1l.08.08Z"/>
        <path class="cls-1" d="M367.63,253.3c-1.5,1.39-3.1,2.76-4.82,4.1-1.26.98-2.57,1.96-3.93,2.91-2.32,1.62-4.8,3.2-7.42,4.74-1.69.99-3.45,1.96-5.26,2.91-3.12,1.64-6.43,3.22-9.91,4.74-2.29,1-4.65,1.98-7.1,2.92-4.29,1.67-8.79,3.25-13.5,4.74-3.23,1.01-6.56,1.99-9.98,2.91-6.5,1.75-13.31,3.35-20.4,4.74-5.57,1.1-11.31,2.07-17.2,2.92-17.98,2.6-37.35,4.01-57.52,4.01s-39.55-1.41-57.52-4.01c-5.89-.85-11.63-1.83-17.2-2.92-7.09-1.39-13.91-2.98-20.41-4.74-3.42-.92-6.74-1.9-9.98-2.91-4.7-1.48-9.21-3.06-13.5-4.74-2.43-.94-4.8-1.92-7.09-2.92-3.47-1.51-6.77-3.09-9.91-4.74-1.82-.94-3.57-1.92-5.26-2.91-2.63-1.53-5.11-3.11-7.43-4.74-1.37-.95-2.68-1.92-3.92-2.91-1.71-1.34-3.33-2.71-4.83-4.1l41.81-41.81,4.75-4.74,2.91-2.91,4.74-4.74,41.17-41.17,4.74-4.74,2.91-2.91,20.04-20.04,2.91-2.91,4.74-4.74,18.22-18.22,4.74-4.74,3.4-3.4,8.13,8.13,2.92,2.92,4.74,4.74,15.3,15.3,2.9,2.91,76.5,76.5,4.75,4.74,22.95,22.95,2.92,2.92,4.74,4.74,11.2,11.2Z"/>
        <g>
          <rect class="cls-4" x="140.83" y="194.74" width="35.99" height="117.29" rx="10.62" ry="10.62"/>
          <rect class="cls-4" x="244.36" y="194.74" width="35.99" height="117.29" rx="10.62" ry="10.62"/>
        </g>
        <polygon class="cls-7" points="221.75 466.71 290.25 466.71 503.89 253.07 432.98 253.29 221.75 466.71"/>
        <polygon class="cls-5" points="500.55 252.98 432.98 252.98 218.12 48.94 295.02 49.55 500.55 252.98"/>
        <g>
          <polygon class="cls-8" points="218.72 104.4 202.46 104.4 207.19 99.66 213.99 99.66 218.72 104.4"/>
          <polygon class="cls-8" points="226.38 112.05 194.8 112.05 199.54 107.32 221.64 107.32 226.38 112.05"/>
          <polygon class="cls-8" points="234.02 119.7 187.16 119.7 191.89 114.96 229.29 114.96 234.02 119.7"/>
          <polygon class="cls-8" points="241.68 127.35 179.5 127.35 184.24 122.62 236.94 122.62 241.68 127.35"/>
          <polygon class="cls-8" points="249.32 135 171.86 135 176.59 130.26 244.58 130.26 249.32 135"/>
          <polygon class="cls-8" points="256.96 142.64 164.21 142.64 168.95 137.91 252.23 137.91 256.96 142.64"/>
          <polygon class="cls-8" points="264.62 150.3 156.56 150.3 161.29 145.56 259.88 145.56 264.62 150.3"/>
          <polygon class="cls-8" points="272.26 157.95 148.91 157.95 153.65 153.21 267.53 153.21 272.26 157.95"/>
          <polygon class="cls-8" points="279.92 165.6 141.25 165.6 145.99 160.87 275.18 160.87 279.92 165.6"/>
          <polygon class="cls-8" points="287.56 173.25 133.61 173.25 138.34 168.51 282.83 168.51 287.56 173.25"/>
          <polygon class="cls-8" points="295.21 180.89 125.96 180.89 130.7 176.16 290.47 176.16 295.21 180.89"/>
          <polygon class="cls-8" points="302.86 188.55 118.31 188.55 123.04 183.81 298.13 183.81 302.86 188.55"/>
          <polygon class="cls-8" points="310.51 196.19 110.66 196.19 115.4 191.46 305.77 191.46 310.51 196.19"/>
          <polygon class="cls-8" points="318.17 203.85 103.01 203.85 107.74 199.11 313.43 199.11 318.17 203.85"/>
          <polygon class="cls-8" points="325.82 211.49 95.35 211.49 100.1 206.76 321.08 206.76 325.82 211.49"/>
          <polygon class="cls-8" points="333.47 219.14 87.71 219.14 92.44 214.4 328.73 214.4 333.47 219.14"/>
          <polygon class="cls-8" points="341.12 226.8 80.05 226.8 84.79 222.06 336.39 222.06 341.12 226.8"/>
          <polygon class="cls-8" points="348.77 234.44 72.4 234.44 77.14 229.71 344.03 229.71 348.77 234.44"/>
          <polygon class="cls-8" points="356.42 242.1 64.75 242.1 69.48 237.36 351.69 237.36 356.42 242.1"/>
          <polygon class="cls-8" points="364.07 249.74 57.1 249.74 61.84 245.01 359.33 245.01 364.07 249.74"/>
          <polygon class="cls-8" points="367.71 253.38 363.69 257.4 57.48 257.4 53.46 253.38 54.19 252.65 366.98 252.65 367.71 253.38"/>
          <polygon class="cls-8" points="360.78 260.31 356.05 265.04 65.12 265.04 60.39 260.31 360.78 260.31"/>
          <polygon class="cls-8" points="353.14 267.95 348.4 272.69 72.77 272.69 68.03 267.95 353.14 267.95"/>
          <polygon class="cls-8" points="345.48 275.61 340.75 280.34 80.42 280.34 75.69 275.61 345.48 275.61"/>
          <polygon class="cls-8" points="337.84 283.25 333.1 287.99 88.07 287.99 83.34 283.25 337.84 283.25"/>
          <polygon class="cls-8" points="330.18 290.91 325.45 295.65 95.73 295.65 90.99 290.91 330.18 290.91"/>
          <polygon class="cls-8" points="322.54 298.56 317.8 303.29 103.37 303.29 98.64 298.56 322.54 298.56"/>
          <polygon class="cls-8" points="314.89 306.2 310.15 310.94 111.02 310.94 106.28 306.2 314.89 306.2"/>
          <polygon class="cls-8" points="307.23 313.86 302.5 318.59 118.67 318.59 113.94 313.86 307.23 313.86"/>
          <polygon class="cls-8" points="299.59 321.5 294.85 326.24 126.32 326.24 121.58 321.5 299.59 321.5"/>
          <polygon class="cls-8" points="291.93 329.16 287.21 333.89 133.97 333.89 129.24 329.16 291.93 329.16"/>
          <polygon class="cls-8" points="284.3 336.8 279.56 341.54 141.62 341.54 136.88 336.8 284.3 336.8"/>
          <polygon class="cls-8" points="276.65 344.45 271.92 349.18 149.26 349.18 144.53 344.45 276.65 344.45"/>
          <polygon class="cls-8" points="269 352.1 264.26 356.84 156.92 356.84 152.19 352.1 269 352.1"/>
          <polygon class="cls-8" points="261.35 359.75 256.62 364.49 164.57 364.49 159.83 359.75 261.35 359.75"/>
          <polygon class="cls-8" points="253.7 367.41 248.96 372.14 172.22 372.14 167.49 367.41 253.7 367.41"/>
          <polygon class="cls-8" points="246.05 375.05 241.31 379.79 179.87 379.79 175.13 375.05 246.05 375.05"/>
          <polygon class="cls-8" points="238.4 382.7 233.67 387.43 187.51 387.43 182.78 382.7 238.4 382.7"/>
          <polygon class="cls-8" points="230.75 390.35 226.01 395.09 195.17 395.09 190.43 390.35 230.75 390.35"/>
          <polygon class="cls-8" points="223.1 398 218.37 402.73 202.81 402.73 198.08 398 223.1 398"/>
          <polygon class="cls-8" points="215.45 405.65 210.71 410.39 210.47 410.39 205.73 405.65 215.45 405.65"/>
        </g>
      </g>
    </g>
  </g>
</svg>