<?xml version="1.0" encoding="UTF-8"?>
<svg xmlns="http://www.w3.org/2000/svg" version="1.1" viewBox="0 0 512 512">
  <defs>
    <style>
      .cls-1 {
        fill: #26282b;
      }

      .cls-2 {
        fill: #b32929;
      }

      .cls-3 {
        fill: #255194;
      }

      .cls-4 {
        fill: #1b1c1f;
      }

      .cls-5 {
        fill: #e6e6e6;
        stroke: #000;
        stroke-miterlimit: 10;
        stroke-width: 34.7px;
      }

      .cls-6 {
        fill: #949494;
      }
    </style>
  </defs>
  <!-- Generator: Adobe Illustrator 28.7.1, SVG Export Plug-In . SVG Version: 1.2.0 Build 142)  -->
  <g>
    <g id="Layer_1">
      <g>
        <g>
          <ellipse class="cls-1" cx="122.1" cy="389.9" rx="66.8" ry="111.3" transform="translate(-239.9 200.6) rotate(-45)"/>
          <ellipse class="cls-1" cx="125.3" cy="386.7" rx="66.8" ry="111.3" transform="translate(-236.7 201.9) rotate(-45)"/>
          <ellipse class="cls-1" cx="128.5" cy="383.5" rx="66.8" ry="111.3" transform="translate(-233.5 203.2) rotate(-45)"/>
          <ellipse class="cls-1" cx="131.7" cy="380.3" rx="66.8" ry="111.3" transform="translate(-230.4 204.5) rotate(-45)"/>
          <ellipse class="cls-1" cx="134.9" cy="377.1" rx="66.8" ry="111.3" transform="translate(-227.2 205.8) rotate(-45)"/>
          <ellipse class="cls-1" cx="138" cy="374" rx="66.8" ry="111.3" transform="translate(-224 207.1) rotate(-45)"/>
          <ellipse class="cls-1" cx="141.2" cy="370.8" rx="66.8" ry="111.3" transform="translate(-220.8 208.5) rotate(-45)"/>
          <ellipse class="cls-1" cx="144.4" cy="367.6" rx="66.8" ry="111.3" transform="translate(-217.6 209.8) rotate(-45)"/>
          <ellipse class="cls-1" cx="147.6" cy="364.4" rx="66.8" ry="111.3" transform="translate(-214.5 211.1) rotate(-45)"/>
          <ellipse class="cls-1" cx="150.8" cy="361.2" rx="66.8" ry="111.3" transform="translate(-211.3 212.4) rotate(-45)"/>
          <ellipse class="cls-1" cx="153.9" cy="358.1" rx="66.8" ry="111.3" transform="translate(-208.1 213.7) rotate(-45)"/>
          <ellipse class="cls-1" cx="157.1" cy="354.9" rx="66.8" ry="111.3" transform="translate(-204.9 215) rotate(-45)"/>
          <ellipse class="cls-4" cx="160.3" cy="351.7" rx="66.8" ry="111.3" transform="translate(-201.7 216.4) rotate(-45)"/>
        </g>
        <g>
          <path class="cls-5" d="M443.3,262.1l38.3-38.3-47.5-47.5-38.3,38.3h0c-.2.2-.5.5-.7.7l-73.7,73.7c-27.2,27.2-71.2,27.2-98.4,0,0,0-.2-.2-.2-.2-26.9-27.2-26.9-71.1.2-98.1l73.7-73.7c.2-.2.5-.5.7-.7h0s38.3-38.3,38.3-38.3l-47.5-47.5-38.3,38.3-.2-.2-89.7,89.7c-53.4,53.4-53.5,140-.2,193.5l.2.2c53.5,53.5,140.3,53.5,193.8,0l89.7-89.7-.2-.2Z"/>
          <path class="cls-2" d="M223.1,190.6l73.7-73.7c.2-.2.5-.5.7-.7l-47.7-47.7-89.7,89.7c-53.4,53.4-53.5,140-.2,193.5l63-63c-26.9-27.2-26.9-71.1.2-98.1Z"/>
          <path class="cls-3" d="M443.5,262.2l-89.7,89.7c-53.5,53.5-140.3,53.5-193.8,0l-.2-.2,63-63c0,0,.2.2.2.2,27.2,27.2,71.2,27.2,98.4,0l73.7-73.7c.2-.2.5-.5.7-.7l47.7,47.7Z"/>
          <rect class="cls-6" x="259.3" y="46.2" width="67.2" height="54.1" transform="translate(137.6 -185.6) rotate(45)"/>
          <rect class="cls-6" x="405.1" y="192.1" width="67.2" height="54.1" transform="translate(283.5 -246) rotate(45)"/>
        </g>
      </g>
    </g>
  </g>
</svg>