<?xml version="1.0" encoding="UTF-8"?>
<svg id="Layer_1" xmlns="http://www.w3.org/2000/svg" viewBox="0 0 512 512">
  <defs>
    <style>
      .cls-1 {
        stroke-width: 22.47px;
      }

      .cls-1, .cls-2 {
        fill: #1c1d1f;
      }

      .cls-1, .cls-3 {
        stroke: #000;
        stroke-miterlimit: 10;
      }

      .cls-4, .cls-3 {
        fill: #26282b;
      }

      .cls-5 {
        fill: #e3fff1;
        opacity: .09;
      }

      .cls-3 {
        stroke-width: 9.46px;
      }
    </style>
  </defs>
  <g>
    <path class="cls-1" d="M343.81,49.97c-22.48-22.47-53.51-36.36-87.81-36.36-68.58,0-124.17,55.59-124.17,124.17v107.61c0,34.26,13.87,65.27,36.29,87.73,22.48,22.5,53.55,36.43,87.88,36.43,39.24,0,74.23-18.2,96.98-46.63,17.02-21.25,27.19-48.2,27.19-77.54v-107.61c0-34.29-13.9-65.33-36.36-87.81ZM256,286.78c-17.8,0-33.95-6.99-45.87-18.39-12.65-12.09-20.54-29.14-20.54-48.02v-57.57c0-18.87,7.88-35.89,20.52-47.98,0,.02.01.04.02.05,11.92-11.4,28.07-18.39,45.87-18.39,21.44,0,40.5,10.16,52.64,25.92,0-.02.02-.04.03-.05,8.62,11.2,13.75,25.22,13.75,40.45v57.57c0,15.24-5.13,29.29-13.78,40.49-12.13,15.76-31.2,25.92-52.64,25.92Z"/>
    <path class="cls-4" d="M343.81,49.97c-22.48-22.47-53.51-36.36-87.81-36.36-68.58,0-124.17,55.59-124.17,124.17v107.61c0,34.26,13.87,65.27,36.29,87.73,16.38-16.89,31.78-38.27,42-64.73-12.65-12.09-20.54-29.14-20.54-48.02v-57.57c0-36.68,29.73-66.41,66.41-66.41,18.34,0,34.94,7.43,46.96,19.45,12.03,12.01,19.45,28.62,19.45,46.96v57.57c0,15.24-5.13,29.29-13.78,40.49,6.13,12.77,19.65,36.75,44.35,62.07,17.02-21.25,27.19-48.2,27.19-77.54v-107.61c0-34.29-13.9-65.33-36.36-87.81Z"/>
    <path class="cls-2" d="M352.98,322.93c-22.75,28.43-57.74,46.63-96.98,46.63-34.33,0-65.4-13.93-87.88-36.43,16.38-16.89,31.78-38.27,42-64.73,11.92,11.4,28.07,18.39,45.87,18.39,21.44,0,40.5-10.16,52.64-25.92,6.13,12.77,19.65,36.75,44.35,62.07Z"/>
    <path class="cls-2" d="M352.98,60.33c-22.75-28.43-57.74-46.63-96.98-46.63-34.33,0-65.4,13.93-87.88,36.43,16.38,16.89,31.78,38.27,42,64.73,11.92-11.4,28.07-18.39,45.87-18.39,21.44,0,40.5,10.16,52.64,25.92,6.13-12.77,19.65-36.75,44.35-62.07Z"/>
  </g>
  <g>
    <rect class="cls-3" x="213.84" y="240.6" width="89.88" height="257.8" rx="44.94" ry="44.94"/>
    <ellipse class="cls-5" cx="268.62" cy="275.47" rx="22.41" ry="31.97" transform="translate(-116.07 267.88) rotate(-44.59)"/>
  </g>
</svg>