<?xml version="1.0" encoding="UTF-8"?>
<svg id="Layer_1" xmlns="http://www.w3.org/2000/svg" viewBox="0 0 512 512">
  <defs>
    <style>
      .cls-1 {
        fill: #1d2d4f;
      }

      .cls-2 {
        fill: none;
        stroke: #1d2d4f;
        stroke-miterlimit: 10;
        stroke-width: 5.67px;
      }

      .cls-3 {
        fill: #e88c5c;
      }

      .cls-4 {
        fill: #416c96;
      }

      .cls-5 {
        fill: #bb5f56;
      }

      .cls-6 {
        fill: #33507c;
      }
    </style>
  </defs>
  <path class="cls-4" d="M169.48,292.71s50.81,56.15,92.63,41.33c41.82-14.82-51.59-43.61-51.59-43.61"/>
  <path class="cls-1" d="M193.31,7.84h6.67c3.45,0,6.24,2.97,6.24,6.64v110.23c0,3.67-2.79,6.64-6.24,6.64h-6.67c-3.45,0-6.24-2.97-6.24-6.64V14.48c0-3.67,2.79-6.64,6.24-6.64Z"/>
  <path class="cls-1" d="M218.71,29.04h3.96c2.15,0,3.88,1.85,3.88,4.13v110.67c0,2.28-1.74,4.13-3.88,4.13h-3.96c-2.15,0-3.88-1.85-3.88-4.13V33.18c0-2.28,1.74-4.13,3.88-4.13Z"/>
  <polygon class="cls-6" points="178.47 96.83 206.22 105.15 214.82 107.73 233.97 113.47 233.97 292.71 178.47 292.71 178.47 122.35 194.89 127.19 194.99 122.71 178.47 117.11 178.47 113.88 194.89 119.71 195.02 111.98 178.47 106.38 178.47 96.83"/>
  <path class="cls-4" d="M214.82,310.38v-28.5s-45.34-28.5-45.34-28.5c0,0-34.39,64.99,0,48.46s45.34,8.55,45.34,8.55Z"/>
  <path class="cls-1" d="M210.4,255.85h60.43v1.94c0,6.26-5.08,11.35-11.35,11.35h-49.08v-13.29h0Z" transform="translate(-21.88 503.11) rotate(-90)"/>
  <path class="cls-3" d="M214.82,281.88l9.16,1.93,23.28,4.91c10.64,8.55,5.51,11.73,7.41,13.4,1.26,1.11,5.62,1.56,19.72,2.49,2.9.19,6.21.4,10,.64,14.6.93,26.61,15.55,36.29,35.78,1.2,2.51,2.37,5.1,3.5,7.77.42.98.82,1.96,1.23,2.96,20.04,49.26,28.55,119.95,28.55,119.95l-86.76,17.1-.8-24.3-2.47-75.31-1.81-55.15-47.29-23.66v-28.5Z"/>
  <path class="cls-5" d="M270.53,499.74l-3.99-10.72,87.41-17.31,3.49,9.37c1.47,3.94-1.72,8-7.13,9.07l-69.7,13.8c-4.38.87-8.89-1.02-10.08-4.21Z"/>
  <path class="cls-4" d="M300.54,363.4c31.56,0,34.95,73.22,15.55,91.37"/>
  <path class="cls-4" d="M316.09,454.77c-7.72,7.23-49.87,4.51-49.87,4.51l-.3-9.26-.3-9.07-.13-4.06-.3-9.07-.13-4.06-.3-9.07-.13-4.06-.3-9.07-.13-4.06-.3-9.07-.13-4.06-.3-9.07-.28-8.51,37.36-3.38"/>
  <polygon class="cls-4" points="206.22 105.15 214.82 107.73 214.82 220.35 206.22 210.78 206.22 105.15"/>
  <rect class="cls-1" x="176.12" y="15.6" width="6.65" height="15.24" transform="translate(156.23 202.67) rotate(-90)"/>
  <path class="cls-2" d="M244.33,272.33s43.21-4.39,35.77,32.65"/>
  <polygon class="cls-1" points="169.48 253.37 171.44 250.52 233.97 285.92 214.82 281.88 169.48 253.37"/>
  <path class="cls-6" d="M316.25,441.52c.61,4.59-2.89,8.77-7.82,9.34l-42.65,4.91-.43-16.82,40.87-4.7c4.93-.57,9.42,2.69,10.03,7.27Z"/>
  <path class="cls-6" d="M318.63,409.52c.73,4.48-3.49,8.55-9.43,9.11l-44.21,4.12-.52-16.4,42.07-3.92c5.94-.56,11.35,2.63,12.09,7.1Z"/>
  <path class="cls-6" d="M310.47,376.97c.73,4.46-3.48,8.51-9.4,9.07l-36.94,3.44-.52-16.33,34.8-3.24c5.92-.55,11.32,2.62,12.06,7.06Z"/>
  <path class="cls-5" d="M274.39,304.61c2.9.19,6.21.4,10,.64,14.6.93,26.61,15.55,36.29,35.78-9.96-14.72-37.31-31.24-46.29-36.42Z"/>
  <path class="cls-5" d="M223.98,283.81l23.28,4.91c10.64,8.55,5.51,11.73,7.41,13.4-7.43,4.25-21.71-13.13-30.69-18.31Z"/>
</svg>