<?xml version="1.0" encoding="UTF-8"?>
<svg xmlns="http://www.w3.org/2000/svg" version="1.1" viewBox="0 0 512 512">
  <defs>
    <style>
      .cls-1 {
        opacity: 0;
      }

      .cls-2 {
        fill: blue;
      }

      .cls-3 {
        fill: red;
      }

      .cls-4 {
        opacity: .2;
      }

      .cls-5 {
        opacity: .3;
      }

      .cls-5, .cls-6, .cls-7 {
        fill: #1a1a1a;
      }

      .cls-7 {
        opacity: .1;
      }

      .cls-8 {
        opacity: .5;
      }
    </style>
  </defs>
  <!-- Generator: Adobe Illustrator 28.7.1, SVG Export Plug-In . SVG Version: 1.2.0 Build 142)  -->
  <g>
    <g id="Layer_1">
      <g>
        <g class="cls-8">
          <rect class="cls-6" x="87.5" y="132.8" width="286.9" height="115.9" transform="translate(462 381.5) rotate(-180)"/>
          <rect class="cls-6" x="374.5" y="155.7" width="27.6" height="70" transform="translate(776.5 381.5) rotate(-180)"/>
          <rect class="cls-6" x="157.8" y="389.6" width="39.9" height="89" transform="translate(355.4 868.3) rotate(-180)"/>
          <rect class="cls-6" x="87.5" y="132.8" width="286.9" height="115.9"/>
          <rect class="cls-5" x="93.8" y="139.5" width="273.8" height="23.1"/>
          <rect class="cls-7" x="93.8" y="215.2" width="274.4" height="26.5"/>
          <polygon class="cls-6" points="117.6 97.3 136.8 97.3 136.8 133.6 100.5 133.6 100.5 113.4 117.6 97.3"/>
          <polygon class="cls-6" points="349 74.7 368.4 74.7 368.4 133.6 329.2 133.6 349 74.7"/>
          <rect class="cls-6" x="265.8" y="108.9" width="43.3" height="24.7" transform="translate(574.8 242.5) rotate(-180)"/>
          <rect class="cls-6" x="374.5" y="155.7" width="27.6" height="70"/>
          <rect class="cls-6" x="402" y="181.3" width="35.5" height="18.9"/>
          <path class="cls-6" d="M107.4,248.7s2.4,7.7,18.1,28.3c2.8,3.6,5.9,7.6,9.5,12.1,14.5,17.8,16.6,50.3,15.9,73.5-.5,15.6-2.2,27.1-2.2,27.1h62.8s-1.9-27.1-1.9-27.1l-6-85.6-2-28.3h-94.3Z"/>
          <rect class="cls-6" x="157.8" y="389.6" width="39.9" height="89"/>
          <path class="cls-6" d="M299.5,248.7v35.7s-53,35.7-53,35.7h-40.5s-5.2-71.4-5.2-71.4h98.7ZM217.9,307.4h27.3s40.6-26.4,40.6-26.4l.5-19.3-72.3.3,3.9,45.5Z"/>
          <rect class="cls-5" x="381" y="162.4" width="14.4" height="16"/>
          <rect class="cls-7" x="381" y="203.9" width="14.4" height="15.1"/>
          <path class="cls-5" d="M118.8,255.3s.4,2.6,15.1,21.9l63.4-.3-1.9-21.6h-76.6Z"/>
          <path class="cls-7" d="M156.5,382.6h47.5s-1.7-24.6-1.7-24.6l-44.2,2.6c-.4,14.2-1.6,22-1.6,22Z"/>
          <rect class="cls-7" x="164.6" y="454.8" width="26.2" height="17.5"/>
          <polygon class="cls-6" points="63.1 148.9 63.1 194.1 68 209.1 74.8 230.2 87.9 230.2 87.9 148.9 63.1 148.9"/>
          <rect class="cls-5" x="69.1" y="154.5" width="15" height="10.3"/>
          <polygon class="cls-7" points="72.3 210.2 77.5 226.4 83.9 226.5 83.9 210.2 72.3 210.2"/>
        </g>
        <g class="cls-1">
          <path class="cls-2" d="M188.2,385.3l15.2-2-5.9-28.4-9.3-44.5,43.8-5.8,53.2-45.6-5-37.8,82.5-11-3.2-24.3,30.3-4-3.6-27.1,39.1-5.2-2.7-20-39.1,5.2-3.6-27.1-30.3,4-3.2-24.3-6.6.9-8.2-61.5-21.4,2.9-13.2,64.4-22.5,3-3.4-25.3-47.6,6.3,3.4,25.3-141.8,18.9-5-37.6-21.2,2.8-16.5,19.6,2.7,20.5-14.3,1.9,2.3,17.1-26.8,3.6,6.4,47.9,7.4,15.2,10.5,21.3,14-1.9,2.6,19.6,21.8-2.9s3.8,7.8,23.9,27.3c3.5,3.4,7.6,7.2,12.2,11.4,18.5,16.7,25.3,50.8,27.8,75.6,1.7,16.6,1.4,29,1.4,29l9.9-1.3,12.6,94.3,43.9-5.9-12.6-94.3ZM269.7,257.3l-41,33.9-30,4-10.7-47.6,79.4-10.9,2.2,20.6Z"/>
        </g>
        <g class="cls-4">
          <path class="cls-3" d="M211.8,388.9l15.2,2.1,1.9-28.9,2.9-45.4,43.8,6,63.4-29.8,5.2-37.8,82.4,11.3,3.3-24.3,30.3,4.2,3.7-27.1,39,5.4,2.7-20-39-5.4,3.7-27.1-30.3-4.2,3.3-24.3-6.6-.9,8.5-61.5-21.4-2.9-29.8,58.6-22.5-3.1,3.5-25.3-47.6-6.5-3.5,25.3-141.7-19.5,5.2-37.6-21.1-2.9-21.1,14.5-2.8,20.5-14.2-2-2.3,17.1-26.8-3.7-6.6,47.9,3.1,16.6,4.4,23.4,14,1.9-2.7,19.6,21.8,3s1.6,8.5,15.8,32.6c2.5,4.3,5.4,9,8.7,14.2,13.4,21,10.9,55.7,6.8,80.3-2.8,16.5-6.3,28.3-6.3,28.3l9.9,1.4-12.9,94.2,43.9,6,12.9-94.2ZM324.4,287.2l-48.5,21.8-30-4.1,2.4-48.7,79.5,10.6-3.4,20.4Z"/>
        </g>
      </g>
    </g>
  </g>
</svg>