<?xml version="1.0" encoding="UTF-8"?>
<svg xmlns="http://www.w3.org/2000/svg" version="1.1" viewBox="0 0 512 512">
  <defs>
    <style>
      .cls-1 {
        fill: #1d2d4f;
      }

      .cls-2 {
        fill: none;
        stroke: #1d2d4f;
        stroke-miterlimit: 10;
        stroke-width: 5.7px;
      }

      .cls-3 {
        fill: #e88c5c;
      }

      .cls-4 {
        fill: #416c96;
      }

      .cls-5 {
        fill: #bb5f56;
      }

      .cls-6 {
        fill: #33507c;
      }
    </style>
  </defs>
  <!-- Generator: Adobe Illustrator 28.7.1, SVG Export Plug-In . SVG Version: 1.2.0 Build 142)  -->
  <g>
    <g id="Layer_1">
      <g>
        <path class="cls-4" d="M169.5,292.7s50.8,56.2,92.6,41.3c41.8-14.8-51.6-43.6-51.6-43.6"/>
        <path class="cls-1" d="M193.3,7.8h6.7c3.4,0,6.2,3,6.2,6.6v110.2c0,3.7-2.8,6.6-6.2,6.6h-6.7c-3.4,0-6.2-3-6.2-6.6V14.5c0-3.7,2.8-6.6,6.2-6.6Z"/>
        <path class="cls-1" d="M218.7,29h4c2.1,0,3.9,1.9,3.9,4.1v110.7c0,2.3-1.7,4.1-3.9,4.1h-4c-2.1,0-3.9-1.9-3.9-4.1V33.2c0-2.3,1.7-4.1,3.9-4.1Z"/>
        <polygon class="cls-6" points="178.5 96.8 206.2 105.1 214.8 107.7 234 113.5 234 292.7 178.5 292.7 178.5 122.4 194.9 127.2 195 122.7 178.5 117.1 178.5 113.9 194.9 119.7 195 112 178.5 106.4 178.5 96.8"/>
        <path class="cls-4" d="M214.8,310.4v-28.5s-45.3-28.5-45.3-28.5c0,0-34.4,65,0,48.5s45.3,8.6,45.3,8.6Z"/>
        <path class="cls-1" d="M210.4,255.9h60.4v1.9c0,6.3-5.1,11.3-11.3,11.3h-49.1v-13.3h0Z" transform="translate(-21.9 503.1) rotate(-90)"/>
        <path class="cls-3" d="M214.8,281.9l9.2,1.9,23.3,4.9c10.6,8.6,5.5,11.7,7.4,13.4,1.3,1.1,5.6,1.6,19.7,2.5,2.9.2,6.2.4,10,.6,14.6.9,26.6,15.5,36.3,35.8,1.2,2.5,2.4,5.1,3.5,7.8.4,1,.8,2,1.2,3,20,49.3,28.5,119.9,28.5,119.9l-86.8,17.1-.8-24.3-2.5-75.3-1.8-55.2-47.3-23.7v-28.5Z"/>
        <path class="cls-5" d="M270.5,499.7l-4-10.7,87.4-17.3,3.5,9.4c1.5,3.9-1.7,8-7.1,9.1l-69.7,13.8c-4.4.9-8.9-1-10.1-4.2Z"/>
        <path class="cls-4" d="M300.5,363.4c31.6,0,34.9,73.2,15.5,91.4"/>
        <path class="cls-4" d="M316.1,454.8c-7.7,7.2-49.9,4.5-49.9,4.5l-.3-9.3-.3-9.1v-4.1c-.1,0-.4-9.1-.4-9.1v-4.1c-.1,0-.4-9.1-.4-9.1v-4.1c-.1,0-.4-9.1-.4-9.1v-4.1c-.1,0-.4-9.1-.4-9.1v-4.1c-.1,0-.4-9.1-.4-9.1l-.3-8.5,37.4-3.4"/>
        <polygon class="cls-4" points="206.2 105.1 214.8 107.7 214.8 220.3 206.2 210.8 206.2 105.1"/>
        <rect class="cls-1" x="176.1" y="15.6" width="6.7" height="15.2" transform="translate(156.2 202.7) rotate(-90)"/>
        <path class="cls-2" d="M244.3,272.3s43.2-4.4,35.8,32.6"/>
        <polygon class="cls-1" points="169.5 253.4 171.4 250.5 234 285.9 214.8 281.9 169.5 253.4"/>
        <path class="cls-6" d="M316.2,441.5c.6,4.6-2.9,8.8-7.8,9.3l-42.7,4.9-.4-16.8,40.9-4.7c4.9-.6,9.4,2.7,10,7.3Z"/>
        <path class="cls-6" d="M318.6,409.5c.7,4.5-3.5,8.6-9.4,9.1l-44.2,4.1-.5-16.4,42.1-3.9c5.9-.6,11.4,2.6,12.1,7.1Z"/>
        <path class="cls-6" d="M310.5,377c.7,4.5-3.5,8.5-9.4,9.1l-36.9,3.4-.5-16.3,34.8-3.2c5.9-.6,11.3,2.6,12.1,7.1Z"/>
        <path class="cls-5" d="M274.4,304.6c2.9.2,6.2.4,10,.6,14.6.9,26.6,15.5,36.3,35.8-10-14.7-37.3-31.2-46.3-36.4Z"/>
        <path class="cls-5" d="M224,283.8l23.3,4.9c10.6,8.6,5.5,11.7,7.4,13.4-7.4,4.2-21.7-13.1-30.7-18.3Z"/>
      </g>
    </g>
  </g>
</svg>