<?xml version="1.0" encoding="UTF-8"?>
<svg xmlns="http://www.w3.org/2000/svg" version="1.1" viewBox="0 0 512 512">
  <defs>
    <style>
      .cls-1 {
        fill: #1d2d4f;
      }

      .cls-2 {
        fill: #263a40;
      }

      .cls-3 {
        fill: #324d70;
      }

      .cls-4 {
        fill: #1a2936;
      }

      .cls-5 {
        fill: #2f5361;
      }

      .cls-6 {
        fill: #1d2e40;
      }

      .cls-7 {
        fill: #152646;
      }

      .cls-8 {
        fill: #33507c;
      }
    </style>
  </defs>
  <!-- Generator: Adobe Illustrator 28.7.1, SVG Export Plug-In . SVG Version: 1.2.0 Build 142)  -->
  <g>
    <g id="Layer_1">
      <g>
        <path class="cls-6" d="M163.2,323.1l68.2,9.1,122.9,16.5c16.7,2.3,31.2,10.3,41.9,21.8,13.8,14.9,21.1,35.6,18.2,57.2-2.9,21.7-21.4,37.4-42.7,37.4-1.9,0-3.8-.1-5.8-.4l-217.8-29.2,15.1-112.5Z"/>
        <rect class="cls-2" x="122.2" y="18" width="50.6" height="31.6" transform="translate(113.7 181.4) rotate(-90)"/>
        <rect class="cls-2" x="170.4" y="33" width="30" height="31.6" transform="translate(136.7 234.3) rotate(-90)"/>
        <rect class="cls-4" x="153.8" y="19.6" width="23.7" height="83.8" transform="translate(104.3 227.2) rotate(-90)"/>
        <path class="cls-1" d="M136.4,63.9h3.2s.2,439.5.2,439.5c-1.1,0-2.2,0-3.2,0-10.9,0-20.8-4.4-27.9-11.5-7.1-7.1-11.6-17-11.6-27.9l-.2-360.6c0-21.8,17.7-39.5,39.4-39.5Z"/>
        <path class="cls-5" d="M231.4,332.2l122.9,16.5c16.7,2.3,31.2,10.3,41.9,21.8l-69.9,31.7-126.5-45.8,31.6-24.1Z"/>
        <path class="cls-8" d="M139.6,63.9h52.2c21.8,0,39.5,17.6,39.5,39.4v305.2c.2,51.4-40.6,93.2-91.5,94.9l-.2-439.5Z"/>
        <path class="cls-3" d="M231.4,251v-19.3s82.7-10.2,80.6,115.2c-11.6-1.1-13.4-4.7-13.4-4.7,0,0,6.3-100.7-67.2-91.1Z"/>
        <path class="cls-7" d="M231.4,312.5s40.8,10.8,50.6-25.8c-5.7,36.9-50.6,43.9-50.6,43.9v-18.1Z"/>
      </g>
    </g>
  </g>
</svg>