<?xml version="1.0" encoding="UTF-8"?>
<svg xmlns="http://www.w3.org/2000/svg" version="1.1" viewBox="0 0 512 512">
  <defs>
    <style>
      .cls-1 {
        stroke-width: 22.5px;
      }

      .cls-1, .cls-2 {
        fill: #1c1d1f;
      }

      .cls-1, .cls-3 {
        stroke: #000;
        stroke-miterlimit: 10;
      }

      .cls-4, .cls-3 {
        fill: #26282b;
      }

      .cls-5 {
        fill: #e3fff1;
        opacity: 0;
      }

      .cls-3 {
        stroke-width: 9.5px;
      }
    </style>
  </defs>
  <!-- Generator: Adobe Illustrator 28.7.1, SVG Export Plug-In . SVG Version: 1.2.0 Build 142)  -->
  <g>
    <g id="Layer_1">
      <g>
        <g>
          <path class="cls-1" d="M343.8,50c-22.5-22.5-53.5-36.4-87.8-36.4-68.6,0-124.2,55.6-124.2,124.2v107.6c0,34.3,13.9,65.3,36.3,87.7,22.5,22.5,53.5,36.4,87.9,36.4s74.2-18.2,97-46.6c17-21.3,27.2-48.2,27.2-77.5v-107.6c0-34.3-13.9-65.3-36.4-87.8ZM256,286.8c-17.8,0-34-7-45.9-18.4-12.7-12.1-20.5-29.1-20.5-48v-57.6c0-18.9,7.9-35.9,20.5-48,0,0,0,0,0,0,11.9-11.4,28.1-18.4,45.9-18.4s40.5,10.2,52.6,25.9c0,0,0,0,0,0,8.6,11.2,13.8,25.2,13.8,40.4v57.6c0,15.2-5.1,29.3-13.8,40.5-12.1,15.8-31.2,25.9-52.6,25.9Z"/>
          <path class="cls-4" d="M343.8,50c-22.5-22.5-53.5-36.4-87.8-36.4-68.6,0-124.2,55.6-124.2,124.2v107.6c0,34.3,13.9,65.3,36.3,87.7,16.4-16.9,31.8-38.3,42-64.7-12.7-12.1-20.5-29.1-20.5-48v-57.6c0-36.7,29.7-66.4,66.4-66.4s34.9,7.4,47,19.5c12,12,19.5,28.6,19.5,47v57.6c0,15.2-5.1,29.3-13.8,40.5,6.1,12.8,19.7,36.8,44.3,62.1,17-21.3,27.2-48.2,27.2-77.5v-107.6c0-34.3-13.9-65.3-36.4-87.8Z"/>
          <path class="cls-2" d="M353,322.9c-22.8,28.4-57.7,46.6-97,46.6s-65.4-13.9-87.9-36.4c16.4-16.9,31.8-38.3,42-64.7,11.9,11.4,28.1,18.4,45.9,18.4s40.5-10.2,52.6-25.9c6.1,12.8,19.7,36.8,44.3,62.1Z"/>
          <path class="cls-2" d="M353,60.3c-22.8-28.4-57.7-46.6-97-46.6s-65.4,13.9-87.9,36.4c16.4,16.9,31.8,38.3,42,64.7,11.9-11.4,28.1-18.4,45.9-18.4s40.5,10.2,52.6,25.9c6.1-12.8,19.7-36.8,44.3-62.1Z"/>
        </g>
        <g>
          <rect class="cls-3" x="213.8" y="240.6" width="89.9" height="257.8" rx="44.9" ry="44.9"/>
          <ellipse class="cls-5" cx="268.6" cy="275.5" rx="22.4" ry="32" transform="translate(-116.1 267.9) rotate(-44.6)"/>
        </g>
      </g>
    </g>
  </g>
</svg>