<?xml version="1.0" encoding="UTF-8"?>
<svg id="Layer_1" xmlns="http://www.w3.org/2000/svg" viewBox="0 0 512 512">
  <defs>
    <style>
      .cls-1 {
        fill: #1d2d4f;
      }

      .cls-2 {
        fill: #263a40;
      }

      .cls-3 {
        fill: #324d70;
      }

      .cls-4 {
        fill: #1a2936;
      }

      .cls-5 {
        fill: #2f5361;
      }

      .cls-6 {
        fill: #1d2e40;
      }

      .cls-7 {
        fill: #152646;
      }

      .cls-8 {
        fill: #33507c;
      }
    </style>
  </defs>
  <path class="cls-6" d="M163.19,323.09l68.25,9.14,122.91,16.45c16.7,2.3,31.23,10.3,41.88,21.77,13.81,14.87,21.11,35.55,18.21,57.23-2.9,21.68-21.44,37.44-42.74,37.45-1.91,0-3.84-.12-5.79-.38l-217.79-29.15,15.07-112.51Z"/>
  <rect class="cls-2" x="122.2" y="18.03" width="50.6" height="31.62" transform="translate(113.73 181.35) rotate(-90.03)"/>
  <rect class="cls-2" x="170.43" y="33.03" width="30.04" height="31.62" transform="translate(136.69 234.32) rotate(-90.03)"/>
  <rect class="cls-4" x="153.84" y="19.6" width="23.72" height="83.8" transform="translate(104.27 227.22) rotate(-90.03)"/>
  <path class="cls-1" d="M136.38,63.89h3.23s.2,439.51.2,439.51c-1.08.05-2.15.06-3.23.06-10.89,0-20.76-4.42-27.91-11.55-7.13-7.14-11.57-17.01-11.57-27.9l-.16-360.64c0-21.79,17.66-39.47,39.45-39.48Z"/>
  <path class="cls-5" d="M231.44,332.23l122.91,16.45c16.7,2.3,31.23,10.3,41.88,21.77l-69.89,31.72-126.52-45.8,31.61-24.14Z"/>
  <path class="cls-8" d="M139.61,63.89l52.24-.02c21.79,0,39.47,17.66,39.48,39.45l.14,305.17c.02,51.36-40.72,93.2-91.67,94.91l-.2-439.51Z"/>
  <path class="cls-3" d="M231.4,250.97v-19.33s82.7-10.16,80.64,115.19c-11.57-1.06-13.44-4.73-13.44-4.73,0,0,6.34-100.66-67.21-91.14Z"/>
  <path class="cls-7" d="M231.43,312.54s40.82,10.79,50.59-25.77c-5.72,36.89-50.58,43.89-50.58,43.89v-18.12Z"/>
</svg>