<?xml version="1.0" encoding="UTF-8"?>
<svg id="Layer_1" xmlns="http://www.w3.org/2000/svg" viewBox="0 0 512 512">
  <defs>
    <style>
      .cls-1 {
        fill: #26282b;
      }

      .cls-2 {
        fill: #b32929;
      }

      .cls-3 {
        fill: #255194;
      }

      .cls-4 {
        fill: #1b1c1f;
      }

      .cls-5 {
        fill: #e6e6e6;
        stroke: #000;
        stroke-miterlimit: 10;
        stroke-width: 34.66px;
      }

      .cls-6 {
        fill: #949494;
      }
    </style>
  </defs>
  <g>
    <ellipse class="cls-1" cx="122.15" cy="389.85" rx="66.76" ry="111.26" transform="translate(-239.89 200.56) rotate(-45)"/>
    <ellipse class="cls-1" cx="125.33" cy="386.67" rx="66.76" ry="111.26" transform="translate(-236.71 201.87) rotate(-45)"/>
    <ellipse class="cls-1" cx="128.51" cy="383.49" rx="66.76" ry="111.26" transform="translate(-233.53 203.19) rotate(-45)"/>
    <ellipse class="cls-1" cx="131.69" cy="380.31" rx="66.76" ry="111.26" transform="translate(-230.35 204.51) rotate(-45)"/>
    <ellipse class="cls-1" cx="134.86" cy="377.14" rx="66.76" ry="111.26" transform="translate(-227.17 205.82) rotate(-45)"/>
    <ellipse class="cls-1" cx="138.04" cy="373.96" rx="66.76" ry="111.26" transform="translate(-223.99 207.14) rotate(-45)"/>
    <ellipse class="cls-1" cx="141.22" cy="370.78" rx="66.76" ry="111.26" transform="translate(-220.82 208.46) rotate(-45)"/>
    <ellipse class="cls-1" cx="144.4" cy="367.6" rx="66.76" ry="111.26" transform="translate(-217.64 209.77) rotate(-45)"/>
    <ellipse class="cls-1" cx="147.58" cy="364.42" rx="66.76" ry="111.26" transform="translate(-214.46 211.09) rotate(-45)"/>
    <ellipse class="cls-1" cx="150.76" cy="361.24" rx="66.76" ry="111.26" transform="translate(-211.28 212.41) rotate(-45)"/>
    <ellipse class="cls-1" cx="153.94" cy="358.06" rx="66.76" ry="111.26" transform="translate(-208.1 213.72) rotate(-45)"/>
    <ellipse class="cls-1" cx="157.12" cy="354.88" rx="66.76" ry="111.26" transform="translate(-204.92 215.04) rotate(-45)"/>
    <ellipse class="cls-4" cx="160.3" cy="351.7" rx="66.76" ry="111.26" transform="translate(-201.74 216.36) rotate(-45)"/>
  </g>
  <g>
    <path class="cls-5" d="M443.33,262.05l38.29-38.29-47.5-47.5-38.29,38.29h0c-.23.24-.47.48-.72.73l-73.67,73.67c-27.17,27.17-71.22,27.17-98.39,0-.08-.08-.16-.16-.24-.25-26.93-27.18-26.85-71.05.24-98.14l73.67-73.67c.24-.24.48-.48.74-.72h0s38.29-38.3,38.29-38.3l-47.5-47.5-38.29,38.29-.2-.2-89.71,89.71c-53.43,53.43-53.51,140.01-.24,193.53l.24.24c53.51,53.51,140.26,53.51,193.78,0l89.71-89.71-.2-.2Z"/>
    <path class="cls-2" d="M223.05,190.56l73.67-73.67c.24-.24.48-.48.74-.72l-47.7-47.7-89.71,89.71c-53.43,53.43-53.51,140.01-.24,193.53l63.01-63.01c-26.93-27.18-26.85-71.05.24-98.14Z"/>
    <path class="cls-3" d="M443.53,262.25l-89.71,89.71c-53.51,53.51-140.27,53.51-193.78,0l-.24-.24,63.01-63.01c.08.09.16.16.24.25,27.17,27.17,71.22,27.17,98.39,0l73.67-73.67c.24-.24.48-.48.72-.74l47.7,47.7Z"/>
    <rect class="cls-6" x="259.26" y="46.2" width="67.17" height="54.15" transform="translate(137.59 -185.61) rotate(45)"/>
    <rect class="cls-6" x="405.14" y="192.09" width="67.17" height="54.15" transform="translate(283.47 -246.03) rotate(45)"/>
  </g>
</svg>