<?xml version="1.0" encoding="UTF-8"?>
<svg xmlns="http://www.w3.org/2000/svg" version="1.1" viewBox="0 0 512 512">
  <defs>
    <style>
      .cls-1 {
        fill: #fff;
        opacity: .2;
      }

      .cls-2 {
        fill: #2055a6;
        stroke: #000;
        stroke-miterlimit: 10;
        stroke-width: 19.1px;
      }
    </style>
  </defs>
  <!-- Generator: Adobe Illustrator 28.7.1, SVG Export Plug-In . SVG Version: 1.2.0 Build 142)  -->
  <g>
    <g id="Layer_1">
      <g>
        <path class="cls-2" d="M310.6,492.9v-192.2c38.8-11.9,58.3-39.8,75.5-76,8.9-18.7,13.8-39.6,13.8-61.6,0-79.5-64.4-143.9-143.9-143.9s-49.6,6.7-70.3,18.3c-43.9,24.7-73.6,71.7-73.6,125.6s31.6,118.2,89.4,136.9v192.9M256,247.5c-46.6,0-84.4-37.8-84.4-84.4s37.8-84.4,84.4-84.4,84.4,37.8,84.4,84.4-37.8,84.4-84.4,84.4ZM211.6,346.6"/>
        <ellipse class="cls-1" cx="338.1" cy="83.8" rx="20" ry="56.5" transform="translate(38.5 261.5) rotate(-44.6)"/>
      </g>
    </g>
  </g>
</svg>