<?xml version="1.0" encoding="UTF-8"?>
<svg id="Layer_1" xmlns="http://www.w3.org/2000/svg" viewBox="0 0 512 512">
  <defs>
    <style>
      .cls-1 {
        fill: #fff;
        opacity: .17;
      }

      .cls-2 {
        fill: #2055a6;
        stroke: #000;
        stroke-miterlimit: 10;
        stroke-width: 19.09px;
      }
    </style>
  </defs>
  <path class="cls-2" d="M310.6,492.86v-192.19c38.84-11.89,58.31-39.8,75.47-76.02,8.87-18.66,13.83-39.55,13.83-61.59,0-79.49-64.43-143.91-143.89-143.91-25.56,0-49.56,6.66-70.35,18.33-43.92,24.66-73.57,71.66-73.57,125.58,0,63.99,31.62,118.25,89.39,136.93v192.87M256.01,247.45c-46.62,0-84.42-37.78-84.42-84.4s37.81-84.4,84.42-84.4,84.39,37.78,84.39,84.4-37.81,84.4-84.39,84.4ZM211.63,346.6"/>
  <ellipse class="cls-1" cx="338.15" cy="83.76" rx="20.05" ry="56.47" transform="translate(38.54 261.5) rotate(-44.59)"/>
</svg>