<?xml version="1.0" encoding="UTF-8"?>
<svg id="Layer_1" xmlns="http://www.w3.org/2000/svg" viewBox="0 0 512 512">
  <defs>
    <style>
      .cls-1 {
        fill: #b0b0b0;
      }

      .cls-2 {
        fill: #a1a1a1;
      }

      .cls-3 {
        fill: #d1d1d1;
      }
    </style>
  </defs>
  <path class="cls-3" d="M501.5,306.77c0,68.57-109.91,124.17-245.5,124.17S10.5,375.34,10.5,306.77,71.32,80.63,206.9,80.63s294.6,157.57,294.6,226.14Z"/>
  <path class="cls-1" d="M497.72,320.93c0,62.47-130.64,110.45-241.72,110.45S17.11,383.4,17.11,320.93c0-38.3,32.93-108.09,84.01-156.34,32.23-30.45,71.69-52.33,114.66-52.33,1.53,0,3.08.03,4.63.09,14.32.5,29.55,3.32,45.21,7.97,16.11,4.78,32.68,11.5,49.2,19.66,92.19,45.48,182.89,135.44,182.89,180.95Z"/>
  <ellipse class="cls-2" cx="258.61" cy="329.04" rx="191.16" ry="75.2"/>
</svg>