<?xml version="1.0" encoding="UTF-8"?>
<svg xmlns="http://www.w3.org/2000/svg" version="1.1" viewBox="0 0 512 512">
  <defs>
    <style>
      .cls-1 {
        fill: #26282b;
      }

      .cls-2 {
        fill: #2055a6;
        stroke: #000;
        stroke-miterlimit: 10;
        stroke-width: 7.1px;
      }

      .cls-3 {
        fill: #1c1d1f;
      }

      .cls-4 {
        fill: #00ad52;
      }

      .cls-5 {
        fill: #f2f2f2;
        opacity: 0;
      }

      .cls-6 {
        isolation: isolate;
      }

      .cls-7 {
        opacity: .3;
      }

      .cls-8 {
        fill: #0d4d63;
        mix-blend-mode: multiply;
        opacity: .3;
      }
    </style>
  </defs>
  <!-- Generator: Adobe Illustrator 28.7.1, SVG Export Plug-In . SVG Version: 1.2.0 Build 142)  -->
  <g class="cls-6">
    <g id="Layer_1">
      <g>
        <path class="cls-2" d="M243.8,45.3h-27.9l-37.7,37.7L8.1,253.1l213.6,213.6h68.5l213.6-213.6L300.5,49.7l-4.4-4.4h-19.7"/>
        <rect x="93.1" y="135.5" width="235.7" height="235.7" transform="translate(-117.4 223.4) rotate(-45)"/>
        <path class="cls-3" d="M367.7,253.4l-4,4-2.9,2.9-7.6,7.6-4.7,4.7-10.6,10.6-4.7,4.7-7.7,7.7-2.9,2.9-7.6,7.6-4.7,4.7-10.6,10.6-4.7,4.7-2.9,2.9-4.7,4.7-2.9,2.9-4.7,4.7-2.9,2.9-15.3,15.3-4.7,4.7-2.9,2.9-4.7,4.7-10.6,10.6-4.7,4.7-7.7,7.7-2.9,2.9-12.5,12.5-7.8-7.8-4.7-4.7-10.6-10.6-4.7-4.7-2.9-2.9-4.7-4.7-10.6-10.6-4.7-4.7-2.9-2.9-4.7-4.7-2.9-2.9-4.7-4.7-7.6-7.6-2.9-2.9-7.7-7.7-4.7-4.7-10.6-10.6-4.7-4.7-2.9-2.9-4.7-4.7-10.6-10.6-4.7-4.7-10.6-10.6-4.7-4.7-7.6-7.6-2.9-2.9-4-4h0c1.5,1.3,3.1,2.7,4.8,4,1.2,1,2.6,2,3.9,2.9,2.3,1.6,4.8,3.2,7.4,4.7,1.7,1,3.4,2,5.3,2.9,3.1,1.6,6.4,3.2,9.9,4.7,2.3,1,4.7,2,7.1,2.9,4.3,1.7,8.8,3.3,13.5,4.7,3.2,1,6.6,2,10,2.9,6.5,1.8,13.3,3.3,20.4,4.7,5.6,1.1,11.3,2.1,17.2,2.9,18,2.6,37.3,4,57.5,4s39.5-1.4,57.5-4c5.9-.9,11.6-1.8,17.2-2.9,7.1-1.4,13.9-3,20.4-4.7,3.4-.9,6.7-1.9,10-2.9,4.7-1.5,9.2-3.1,13.5-4.7,2.4-.9,4.8-1.9,7.1-2.9,3.5-1.5,6.8-3.1,9.9-4.7,1.8-1,3.6-1.9,5.3-2.9,2.6-1.5,5.1-3.1,7.4-4.7,1.4-1,2.7-1.9,3.9-2.9,1.7-1.3,3.3-2.7,4.8-4.1h0Z"/>
        <path class="cls-1" d="M367.6,253.3c-1.5,1.4-3.1,2.8-4.8,4.1-1.3,1-2.6,2-3.9,2.9-2.3,1.6-4.8,3.2-7.4,4.7-1.7,1-3.4,2-5.3,2.9-3.1,1.6-6.4,3.2-9.9,4.7-2.3,1-4.7,2-7.1,2.9-4.3,1.7-8.8,3.3-13.5,4.7-3.2,1-6.6,2-10,2.9-6.5,1.8-13.3,3.3-20.4,4.7-5.6,1.1-11.3,2.1-17.2,2.9-18,2.6-37.3,4-57.5,4s-39.5-1.4-57.5-4c-5.9-.9-11.6-1.8-17.2-2.9-7.1-1.4-13.9-3-20.4-4.7-3.4-.9-6.7-1.9-10-2.9-4.7-1.5-9.2-3.1-13.5-4.7-2.4-.9-4.8-1.9-7.1-2.9-3.5-1.5-6.8-3.1-9.9-4.7-1.8-.9-3.6-1.9-5.3-2.9-2.6-1.5-5.1-3.1-7.4-4.7-1.4-1-2.7-1.9-3.9-2.9-1.7-1.3-3.3-2.7-4.8-4.1l41.8-41.8,4.7-4.7,2.9-2.9,4.7-4.7,41.2-41.2,4.7-4.7,2.9-2.9,20-20,2.9-2.9,4.7-4.7,18.2-18.2,4.7-4.7,3.4-3.4,8.1,8.1,2.9,2.9,4.7,4.7,15.3,15.3,2.9,2.9,76.5,76.5,4.7,4.7,22.9,22.9,2.9,2.9,4.7,4.7,11.2,11.2Z"/>
        <g>
          <rect class="cls-4" x="140.8" y="194.7" width="36" height="117.3" rx="10.6" ry="10.6"/>
          <rect class="cls-4" x="244.4" y="194.7" width="36" height="117.3" rx="10.6" ry="10.6"/>
        </g>
        <polygon class="cls-7" points="221.7 466.7 290.3 466.7 503.9 253.1 433 253.3 221.7 466.7"/>
        <polygon class="cls-5" points="500.6 253 433 253 218.1 48.9 295 49.6 500.6 253"/>
        <g>
          <polygon class="cls-8" points="218.7 104.4 202.5 104.4 207.2 99.7 214 99.7 218.7 104.4"/>
          <polygon class="cls-8" points="226.4 112.1 194.8 112.1 199.5 107.3 221.6 107.3 226.4 112.1"/>
          <polygon class="cls-8" points="234 119.7 187.2 119.7 191.9 115 229.3 115 234 119.7"/>
          <polygon class="cls-8" points="241.7 127.4 179.5 127.4 184.2 122.6 236.9 122.6 241.7 127.4"/>
          <polygon class="cls-8" points="249.3 135 171.9 135 176.6 130.3 244.6 130.3 249.3 135"/>
          <polygon class="cls-8" points="257 142.6 164.2 142.6 168.9 137.9 252.2 137.9 257 142.6"/>
          <polygon class="cls-8" points="264.6 150.3 156.6 150.3 161.3 145.6 259.9 145.6 264.6 150.3"/>
          <polygon class="cls-8" points="272.3 157.9 148.9 157.9 153.6 153.2 267.5 153.2 272.3 157.9"/>
          <polygon class="cls-8" points="279.9 165.6 141.3 165.6 146 160.9 275.2 160.9 279.9 165.6"/>
          <polygon class="cls-8" points="287.6 173.2 133.6 173.2 138.3 168.5 282.8 168.5 287.6 173.2"/>
          <polygon class="cls-8" points="295.2 180.9 126 180.9 130.7 176.2 290.5 176.2 295.2 180.9"/>
          <polygon class="cls-8" points="302.9 188.5 118.3 188.5 123 183.8 298.1 183.8 302.9 188.5"/>
          <polygon class="cls-8" points="310.5 196.2 110.7 196.2 115.4 191.5 305.8 191.5 310.5 196.2"/>
          <polygon class="cls-8" points="318.2 203.8 103 203.8 107.7 199.1 313.4 199.1 318.2 203.8"/>
          <polygon class="cls-8" points="325.8 211.5 95.4 211.5 100.1 206.8 321.1 206.8 325.8 211.5"/>
          <polygon class="cls-8" points="333.5 219.1 87.7 219.1 92.4 214.4 328.7 214.4 333.5 219.1"/>
          <polygon class="cls-8" points="341.1 226.8 80 226.8 84.8 222.1 336.4 222.1 341.1 226.8"/>
          <polygon class="cls-8" points="348.8 234.4 72.4 234.4 77.1 229.7 344 229.7 348.8 234.4"/>
          <polygon class="cls-8" points="356.4 242.1 64.7 242.1 69.5 237.4 351.7 237.4 356.4 242.1"/>
          <polygon class="cls-8" points="364.1 249.7 57.1 249.7 61.8 245 359.3 245 364.1 249.7"/>
          <polygon class="cls-8" points="367.7 253.4 363.7 257.4 57.5 257.4 53.5 253.4 54.2 252.7 367 252.7 367.7 253.4"/>
          <polygon class="cls-8" points="360.8 260.3 356 265 65.1 265 60.4 260.3 360.8 260.3"/>
          <polygon class="cls-8" points="353.1 268 348.4 272.7 72.8 272.7 68 268 353.1 268"/>
          <polygon class="cls-8" points="345.5 275.6 340.7 280.3 80.4 280.3 75.7 275.6 345.5 275.6"/>
          <polygon class="cls-8" points="337.8 283.3 333.1 288 88.1 288 83.3 283.3 337.8 283.3"/>
          <polygon class="cls-8" points="330.2 290.9 325.4 295.6 95.7 295.6 91 290.9 330.2 290.9"/>
          <polygon class="cls-8" points="322.5 298.6 317.8 303.3 103.4 303.3 98.6 298.6 322.5 298.6"/>
          <polygon class="cls-8" points="314.9 306.2 310.2 310.9 111 310.9 106.3 306.2 314.9 306.2"/>
          <polygon class="cls-8" points="307.2 313.9 302.5 318.6 118.7 318.6 113.9 313.9 307.2 313.9"/>
          <polygon class="cls-8" points="299.6 321.5 294.9 326.2 126.3 326.2 121.6 321.5 299.6 321.5"/>
          <polygon class="cls-8" points="291.9 329.2 287.2 333.9 134 333.9 129.2 329.2 291.9 329.2"/>
          <polygon class="cls-8" points="284.3 336.8 279.6 341.5 141.6 341.5 136.9 336.8 284.3 336.8"/>
          <polygon class="cls-8" points="276.7 344.4 271.9 349.2 149.3 349.2 144.5 344.4 276.7 344.4"/>
          <polygon class="cls-8" points="269 352.1 264.3 356.8 156.9 356.8 152.2 352.1 269 352.1"/>
          <polygon class="cls-8" points="261.4 359.7 256.6 364.5 164.6 364.5 159.8 359.7 261.4 359.7"/>
          <polygon class="cls-8" points="253.7 367.4 249 372.1 172.2 372.1 167.5 367.4 253.7 367.4"/>
          <polygon class="cls-8" points="246.1 375.1 241.3 379.8 179.9 379.8 175.1 375.1 246.1 375.1"/>
          <polygon class="cls-8" points="238.4 382.7 233.7 387.4 187.5 387.4 182.8 382.7 238.4 382.7"/>
          <polygon class="cls-8" points="230.7 390.4 226 395.1 195.2 395.1 190.4 390.4 230.7 390.4"/>
          <polygon class="cls-8" points="223.1 398 218.4 402.7 202.8 402.7 198.1 398 223.1 398"/>
          <polygon class="cls-8" points="215.4 405.7 210.7 410.4 210.5 410.4 205.7 405.7 215.4 405.7"/>
        </g>
      </g>
    </g>
  </g>
</svg>