<?xml version="1.0" encoding="UTF-8"?>
<svg xmlns="http://www.w3.org/2000/svg" version="1.1" viewBox="0 0 562.3 562.3">
  <defs>
    <style>
      .cls-1 {
        fill: #263a40;
      }

      .cls-2 {
        fill: #233247;
      }

      .cls-3 {
        fill: #284559;
      }

      .cls-4 {
        fill: #1a2936;
      }
    </style>
  </defs>
  <!-- Generator: Adobe Illustrator 28.7.1, SVG Export Plug-In . SVG Version: 1.2.0 Build 142)  -->
  <g>
    <g id="Layer_1">
      <g>
        <path class="cls-4" d="M178.9,355.1l75.2,10.1,135.4,18.1c18.4,2.5,34.4,11.3,46.1,24,15.2,16.4,23.3,39.2,20.1,63.1-3.2,23.9-23.6,41.3-47.1,41.3-2.1,0-4.2-.1-6.4-.4l-240-32.1,16.6-124Z"/>
        <rect class="cls-1" x="133.7" y="18.9" width="55.8" height="34.8" transform="translate(125.3 198) rotate(-90)"/>
        <rect class="cls-1" x="186.9" y="35.5" width="33.1" height="34.8" transform="translate(150.6 256.3) rotate(-90)"/>
        <rect class="cls-4" x="168.6" y="20.7" width="26.1" height="92.3" transform="translate(114.9 248.5) rotate(-90)"/>
        <path class="cls-2" d="M149.3,69.5h3.6s.2,484.3.2,484.3c-1.2,0-2.4,0-3.6,0-12,0-22.9-4.9-30.8-12.7-7.9-7.9-12.7-18.7-12.8-30.7l-.2-397.4c0-24,19.5-43.5,43.5-43.5Z"/>
        <path class="cls-1" d="M254.1,365.2l135.4,18.1c18.4,2.5,34.4,11.3,46.1,24l-77,35-139.4-50.5,34.8-26.6Z"/>
        <path class="cls-3" d="M152.9,69.5h57.6c24,0,43.5,19.4,43.5,43.4l.2,336.3c0,56.6-44.9,102.7-101,104.6l-.2-484.3Z"/>
        <path class="cls-1" d="M254,275.6v-21.3s91.1-11.2,88.9,126.9c-12.8-1.2-14.8-5.2-14.8-5.2,0,0,7-110.9-74.1-100.4Z"/>
        <path class="cls-4" d="M254.1,343.4s45,11.9,55.7-28.4c-6.3,40.7-55.7,48.4-55.7,48.4v-20Z"/>
      </g>
    </g>
  </g>
</svg>