<?xml version="1.0" encoding="UTF-8"?>
<svg xmlns="http://www.w3.org/2000/svg" version="1.1" viewBox="0 0 562.3 562.3">
  <defs>
    <style>
      .cls-1 {
        fill: #4a4a4a;
      }

      .cls-2 {
        fill: #292933;
        opacity: .3;
      }

      .cls-3, .cls-4 {
        stroke-width: 18.5px;
      }

      .cls-3, .cls-4, .cls-5, .cls-6 {
        stroke: #303030;
        stroke-miterlimit: 10;
      }

      .cls-3, .cls-6 {
        fill: none;
      }

      .cls-4, .cls-5 {
        fill: #696969;
      }

      .cls-5 {
        stroke-width: 22.9px;
      }

      .cls-6 {
        stroke-width: 11.2px;
      }

      .cls-7 {
        fill: #8a8a94;
        opacity: .3;
      }
    </style>
  </defs>
  <!-- Generator: Adobe Illustrator 28.7.1, SVG Export Plug-In . SVG Version: 1.2.0 Build 142)  -->
  <g>
    <g id="Layer_1">
      <g>
        <rect class="cls-4" x="-1.9" y="257.1" width="350.3" height="141.5" transform="translate(501.1 154.6) rotate(90)"/>
        <polyline class="cls-3" points="102.5 458.7 173.2 396.4 173.2 152.7"/>
        <polygon class="cls-4" points="50.5 482.1 50.5 458.6 94.8 458.6 94.8 503 70.2 503 50.5 482.1"/>
        <polygon class="cls-4" points="25.3 183.8 25.3 160 97.2 160 97.2 207.9 25.3 183.8"/>
        <rect class="cls-4" x="56.5" y="247.1" width="52.9" height="23.8" transform="translate(341.9 176) rotate(90)"/>
        <rect class="cls-4" x="156.4" y="78.7" width="33.7" height="85.5" transform="translate(294.7 -51.8) rotate(90)"/>
        <rect class="cls-4" x="162.4" y="54.8" width="22.2" height="51.8" transform="translate(254.2 -92.7) rotate(90)"/>
        <rect class="cls-4" x="152.4" y="23.7" width="43.4" height="23" transform="translate(209.3 -138.9) rotate(90)"/>
        <path class="cls-4" d="M422.5,353.8v76.6s-86.5-12.9-122.8,16.7c-36.3,29.7-49.3,33.8-49.3,33.8v-115.1l172.1-12Z"/>
        <rect class="cls-4" x="463.3" y="338.5" width="48.7" height="108.6" transform="translate(880.6 -94.8) rotate(90)"/>
        <path class="cls-4" d="M253.7,250.5h33.2l33.2,52.8v45.6h-66.4v-98.3ZM312.7,340.3v-34.9l-29.7-46.4-21.7-.6.3,82.5,51.1-.6Z"/>
        <rect class="cls-1" x="102.5" y="152.7" width="141.5" height="350.3"/>
        <rect class="cls-7" x="102.5" y="152.7" width="39.6" height="350.3"/>
        <rect class="cls-2" x="204.4" y="152.7" width="39.6" height="350.3"/>
        <polyline class="cls-6" points="95.9 461.8 166.6 399.5 166.6 151.2"/>
        <polygon class="cls-1" points="50.5 482.1 50.5 458.6 94.8 458.6 94.8 503 70.2 503 50.5 482.1"/>
        <polygon class="cls-5" points="221.4 534.6 221.4 518.5 122.1 518.5 122.1 548.8 177.4 548.8 221.4 534.6"/>
        <polygon class="cls-1" points="20.3 183.8 20.3 160 92.2 160 92.2 207.9 20.3 183.8"/>
        <rect class="cls-1" x="53.9" y="247.1" width="52.9" height="23.8" transform="translate(339.3 178.7) rotate(90)"/>
        <rect class="cls-1" x="130.5" y="104.6" width="85.5" height="33.7"/>
        <rect class="cls-1" x="147.5" y="69.7" width="51.8" height="22.2"/>
        <rect class="cls-1" x="162.6" y="13.5" width="23" height="43.4"/>
        <path class="cls-1" d="M252.7,478.8s9.4-3,34.5-22.1c4.4-3.4,9.3-7.2,14.8-11.7,21.7-17.7,61.4-20.2,89.8-19.4,19.1.6,33,2.7,33,2.7v-76.6l-33,2.3-104.5,7.3-34.5,2.4v115.1Z"/>
        <rect class="cls-1" x="433.4" y="368.5" width="108.6" height="48.7"/>
        <path class="cls-1" d="M253.7,250.5h33.2l33.2,52.8v45.6h-66.4v-98.3ZM312.7,340.3v-34.9l-29.7-46.4-21.7-.6.3,82.5,51.1-.6Z"/>
        <rect class="cls-7" x="162.6" y="13.5" width="4.2" height="43.4"/>
        <rect class="cls-7" x="147.5" y="69.7" width="19.2" height="22.2"/>
        <rect class="cls-7" x="130.5" y="104.6" width="36.3" height="33.7"/>
        <rect class="cls-2" x="182.6" y="13.5" width="3" height="43.4"/>
        <rect class="cls-2" x="182.6" y="69.7" width="16.7" height="22.2"/>
        <rect class="cls-2" x="182.6" y="104.6" width="33.4" height="33.7"/>
        <path class="cls-7" d="M252.7,478.8s9.4-3,34.5-22.1v-95.4l-34.5,2.4v115.1Z"/>
        <path class="cls-2" d="M424.7,428.2v-76.6l-33,2.3v71.7c19.1.6,33,2.7,33,2.7Z"/>
        <rect class="cls-2" x="515.6" y="368.5" width="26.4" height="48.7"/>
        <polygon class="cls-1" points="122.1 548.8 177.4 548.8 195.7 542.9 221.4 534.6 221.4 518.5 122.1 518.5 122.1 548.8"/>
        <rect class="cls-7" x="122.1" y="518.5" width="25.7" height="30.2"/>
        <polygon class="cls-2" points="195.7 542.9 221.4 534.6 221.4 518.5 195.7 518.5 195.7 542.9"/>
      </g>
    </g>
  </g>
</svg>